Coordinates
version=1
nRows=11
nColumns=40
inDegrees=yes

Units are S.I. units (second, meters, Newtons, ...)
Angles are in degrees.

endheader
time	pelvis_tilt	pelvis_list	pelvis_rotation	pelvis_tx	pelvis_ty	pelvis_tz	hip_flexion_r	hip_adduction_r	hip_rotation_r	knee_angle_r	knee_angle_r_beta	ankle_angle_r	subtalar_angle_r	mtp_angle_r	hip_flexion_l	hip_adduction_l	hip_rotation_l	knee_angle_l	knee_angle_l_beta	ankle_angle_l	subtalar_angle_l	mtp_angle_l	lumbar_extension	lumbar_bending	lumbar_rotation	arm_flex_r	arm_add_r	arm_rot_r	elbow_flex_r	pro_sup_r	wrist_flex_r	wrist_dev_r	arm_flex_l	arm_add_l	arm_rot_l	elbow_flex_l	pro_sup_l	wrist_flex_l	wrist_dev_l
     38.92142857	      0.93066898	     -5.36124437	      4.44612106	      1.08480201	      0.91475844	      0.52842138	     13.47792917	      4.09469111	    -11.25290684	     30.65737672	     30.65737672	     17.18688449	    -14.02987236	     -1.19170765	     30.14009010	    -14.56586160	      4.81599589	     69.06899040	     69.06899040	      6.50897903	    -19.31467544	     14.71338908	    -11.45975205	      5.61101284	     -0.63734559	     24.35824032	    -17.75444427	     -1.79601896	     44.29801298	     45.49229700	      0.00000000	      0.00000000	      3.68864384	     -8.07743244	      3.29050756	     28.19295660	     46.05330277	      0.00000000	      0.00000000
     38.94285714	      0.91075788	     -5.22994436	      5.19805396	      1.08360535	      0.91492030	      0.52966098	     13.20296011	      4.08235741	    -11.60110594	     30.53390340	     30.53390340	     17.49550906	    -14.37914935	     -0.76820276	     31.73059792	    -14.18449298	      5.12051585	     68.41196886	     68.41196886	      8.28060339	    -19.39303426	     19.13471978	    -11.55291883	      5.39515655	      0.04891429	     27.75346295	    -18.70621359	     -1.55973163	     46.82658766	     45.41782933	      0.00000000	      0.00000000	      1.30252527	     -7.34768912	      5.27498981	     25.15190277	     45.67531843	      0.00000000	      0.00000000
     38.96428571	      0.83843688	     -5.11124298	      5.96831856	      1.08246883	      0.91556719	      0.53048296	     12.78082310	      4.07453390	    -12.02514151	     30.02313252	     30.02313252	     17.56369094	    -14.64744033	     -0.58958531	     32.83311638	    -13.82416127	      5.15142623	     66.50421204	     66.50421204	      9.01470914	    -19.45100257	     19.40370647	    -11.60963775	      5.21512976	      0.18164981	     31.59149913	    -19.06781479	     -1.92847860	     49.23863287	     45.37142310	      0.00000000	      0.00000000	     -1.80673514	     -6.83167042	      5.83639771	     23.64835970	     45.51617586	      0.00000000	      0.00000000
     38.98571429	      0.62060417	     -4.90399465	      6.72254318	      1.08122171	      0.91652553	      0.53078513	     12.40871061	      3.91893317	    -12.49329895	     29.33466484	     29.33466484	     17.55314782	    -14.74530934	     -0.44138630	     33.64575034	    -13.17490013	      5.12019610	     63.64854003	     63.64854003	      9.80459725	    -19.45596620	     19.59400046	    -11.54149652	      4.97448708	      0.39083873	     35.37786429	    -19.50012549	     -2.23650496	     51.73448633	     45.31893168	      0.00000000	      0.00000000	     -4.77500792	     -6.43731224	      6.39278054	     22.44183791	     45.34891470	      0.00000000	      0.00000000
     39.00714286	      0.24499788	     -4.67457134	      7.48882351	      1.07988309	      0.91767710	      0.53063593	     12.08780202	      3.67603517	    -13.09592319	     28.41989020	     28.41989020	     17.23863292	    -14.76130097	     -1.01043553	     34.16890373	    -12.32954474	      5.11088272	     59.88137137	     59.88137137	     10.04937687	    -19.40532211	     18.63814439	    -11.35053906	      4.75530260	      1.02339432	     38.41756074	    -20.59771435	     -2.25433140	     55.66644149	     45.29275318	      0.00000000	      0.00000000	     -8.20159370	     -7.72761937	     17.17362270	     23.96094969	     43.21694686	      0.00000000	      0.00000000
     39.02857143	     -0.19946514	     -4.39012738	      8.25365259	      1.07852366	      0.91908148	      0.52999915	     11.76091314	      3.32235746	    -13.78178951	     27.41613436	     27.41613436	     17.10570600	    -14.46293831	     -0.97908435	     34.31169696	    -11.26866059	      5.19469965	     55.36063400	     55.36063400	      9.76075268	    -19.28197192	     17.18659000	    -11.12725671	      4.48168280	      1.09773466	     42.11171921	    -20.93267554	     -2.58690247	     58.43446993	     45.23924100	      0.00000000	      0.00000000	    -11.19706493	     -7.69695881	     17.50044448	     24.19156558	     43.16991164	      0.00000000	      0.00000000
     39.05000000	     -0.64660564	     -4.13058975	      9.01842897	      1.07719441	      0.92066672	      0.52896737	     11.31561730	      2.98994763	    -14.51714868	     26.19987381	     26.19987381	     16.90978619	    -14.01827859	     -0.97727325	     34.12317711	    -10.11221199	      5.50691780	     50.38299159	     50.38299159	      9.11802403	    -19.01000971	     16.03702242	    -10.91173600	      4.26696930	      1.14329256	     45.86858871	    -21.18451016	     -2.80993535	     60.96040056	     45.18513600	      0.00000000	      0.00000000	    -13.89576695	     -7.68177145	     17.80861910	     24.17460123	     43.09226014	      0.00000000	      0.00000000
     39.07142857	     -1.16352054	     -3.88254752	      9.76622324	      1.07599343	      0.92202628	      0.52765079	     10.93862308	      2.62076461	    -15.32503594	     24.99696947	     24.99696947	     16.50162143	    -13.58945095	     -1.66516778	     33.57226702	     -9.09635003	      5.66819340	     44.80371320	     44.80371320	      6.62439152	    -18.60194158	     10.93082687	    -10.65127156	      4.04515501	      1.33273313	     49.25992678	    -21.73478501	     -2.67999735	     63.87599473	     45.11831086	      0.00000000	      0.00000000	    -16.92914076	     -8.29243346	     18.61699852	     26.41174850	     42.96234871	      0.00000000	      0.00000000
     39.09285714	     -1.68973154	     -3.74545025	     10.47578919	      1.07486681	      0.92331179	      0.52611807	     10.52779294	      2.37989514	    -16.17193416	     23.69917260	     23.69917260	     16.18566812	    -12.93964683	     -1.94306761	     33.00618580	     -8.16868371	      6.06831878	     39.51225550	     39.51225550	      4.97562973	    -17.55286238	      9.09890365	    -10.36345021	      3.96630445	      1.29146936	     52.80318748	    -21.73403264	     -2.68304924	     66.18806029	     45.07088167	      0.00000000	      0.00000000	    -19.31739984	     -8.53969922	     19.38213550	     27.16098515	     42.85451828	      0.00000000	      0.00000000
     39.11428571	     -2.21302096	     -3.54505351	     11.12085715	      1.07393891	      0.92438791	      0.52438995	     10.19126482	      2.10556608	    -16.70193340	     22.59148593	     22.59148593	     15.99574355	    -12.74189268	     -1.83525412	     32.42685104	     -7.39245571	      6.07040443	     34.69424717	     34.69424717	      4.10869686	    -15.32629179	      9.30868213	    -10.04037903	      3.77828720	      1.71407756	     56.17817505	    -22.12266998	     -2.87153918	     67.73349929	     45.04522998	      0.00000000	      0.00000000	    -20.95290240	     -8.77186129	     19.56820683	     27.26593632	     42.81147169	      0.00000000	      0.00000000
     39.13571429	     -2.61500869	     -3.47943598	     11.75114085	      1.07328845	      0.92529166	      0.52253994	      9.69281849	      1.98022805	    -17.39341646	     21.42611152	     21.42611152	     15.81671780	    -12.23799873	     -1.87918251	     31.78072283	     -6.90901154	      5.84027112	     30.37294449	     30.37294449	      3.10432604	    -12.64219898	      9.22226508	     -9.86308333	      3.76946585	      1.79262992	     59.38375914	    -22.05484246	     -2.82630329	     69.61580497	     44.99976963	      0.00000000	      0.00000000	    -22.64755068	     -9.02308950	     19.77331647	     27.83318293	     42.76366215	      0.00000000	      0.00000000
